# xmcd
#
# Track frame offsets:
#	150
#	16512
#	32845
#	41329
#	56998
#	71841
#	87799
#	97884
#	110394
#	121132
#	132247
#	150719
#
# Disc length: 2168 seconds
# Revision: 0
# Processed by: cddbd v1.5.2PL0 Copyright (c) Steve Scherf et al.
# Submitted via: dBpowerAMP V12.0
#
DISCID=9108760c
DTITLE=Katie Kerkhover - Step Through The Looking Glass
DYEAR=2001
DGENRE=Country
TTITLE0=Step Through The Looking Glass
TTITLE1=Dream Out Of The Blue
TTITLE2=Boston Boy
TTITLE3=Rock Of Ages Roll
TTITLE4=I Found My Teardrops
TTITLE5=Take It Down To The Valley
TTITLE6=The Long Bow
TTITLE7=Cherish The Crown
TTITLE8=Lonesome Devil Blues-Lonesome Fiddle Blues-The Devil Went Down To Georgia
TTITLE9=Jealousy
TTITLE10=Man In The Middle
TTITLE11=Ashokan Farewell
EXTD=
EXTT0=
EXTT1=
EXTT2=
EXTT3=
EXTT4=
EXTT5=
EXTT6=
EXTT7=
EXTT8=
EXTT9=
EXTT10=
EXTT11=
PLAYORDER=
